HIERARCHY
ROOT Hips
{
	OFFSET	0.00	0.00	0.00
	CHANNELS 6 Xposition Yposition Zposition Zrotation Xrotation Yrotation
	JOINT LeftUpLeg
	{
		OFFSET	 0.126116	-0.014019	-0.065224
		CHANNELS 3 Zrotation Xrotation Yrotation
		JOINT LeftLeg
		{
			OFFSET	 0.000000	 0.000000	 0.569914
			CHANNELS 3 Zrotation Xrotation Yrotation
			JOINT LeftFoot
			{
				OFFSET	 0.000000	 0.000000	 0.544423
				CHANNELS 3 Zrotation Xrotation Yrotation
				JOINT LeftToeBase
				{
					OFFSET	 0.000000	 0.000000	 0.207117
					CHANNELS 3 Zrotation Xrotation Yrotation
					End Site
					{
						OFFSET	 0.000000	 0.000000	 0.207117
					}
				}
			}
		}
	}
	JOINT RightUpLeg
	{
		OFFSET	-0.124023	-0.008373	-0.065224
		CHANNELS 3 Zrotation Xrotation Yrotation
		JOINT RightLeg
		{
			OFFSET	 0.000000	 0.000000	 0.570047
			CHANNELS 3 Zrotation Xrotation Yrotation
			JOINT RightFoot
			{
				OFFSET	 0.000000	 0.000000	 0.544354
				CHANNELS 3 Zrotation Xrotation Yrotation
				JOINT RightToeBase
				{
					OFFSET	 0.000000	 0.000000	 0.207540
					CHANNELS 3 Zrotation Xrotation Yrotation
					End Site
					{
						OFFSET	 0.000000	 0.000000	 0.207540
					}
				}
			}
		}
	}
	JOINT Spine
	{
		OFFSET	 0.000184	-0.007763	 0.117403
		CHANNELS 3 Zrotation Xrotation Yrotation
		JOINT Spine1
		{
			OFFSET	 0.000000	 0.000000	 0.137269
			CHANNELS 3 Zrotation Xrotation Yrotation
			JOINT Spine2
			{
				OFFSET	 0.000000	 0.000000	 0.156879
				CHANNELS 3 Zrotation Xrotation Yrotation
				JOINT LeftShoulder
				{
					OFFSET	 0.080501	-0.002496	 0.160144
					CHANNELS 3 Zrotation Xrotation Yrotation
					JOINT LeftArm
					{
						OFFSET	 0.000000	 0.000000	 0.164363
						CHANNELS 3 Zrotation Xrotation Yrotation
						JOINT LeftForeArm
						{
							OFFSET	 0.000000	 0.000000	 0.364576
							CHANNELS 3 Zrotation Xrotation Yrotation
							JOINT LeftHand
							{
								OFFSET	 0.000000	 0.000000	 0.360812
								CHANNELS 3 Zrotation Xrotation Yrotation
								JOINT LeftHandIndex1
								{
									OFFSET	 0.000000	 0.000000	 0.086006
									CHANNELS 3 Zrotation Xrotation Yrotation
									JOINT LeftHandIndex2
									{
										OFFSET	 0.000000	 0.000000	 0.047236
										CHANNELS 3 Zrotation Xrotation Yrotation
										JOINT LeftHandIndex3
										{
											OFFSET	-0.004284	-0.000551	 0.038166
											CHANNELS 3 Zrotation Xrotation Yrotation
											End Site
											{
												OFFSET	-0.004284	-0.000551	 0.038166
											}
										}
									}
								}
							}
						}
					}
				}
				JOINT Neck
				{
					OFFSET	 0.000000	 0.000000	 0.176489
					CHANNELS 3 Zrotation Xrotation Yrotation
					JOINT Head
					{
						OFFSET	 0.000000	-0.001747	 0.077940
						CHANNELS 3 Zrotation Xrotation Yrotation
						End Site
						{
							OFFSET	 0.000000	-0.001747	 0.077940
						}
					}
				}
				JOINT RightShoulder
				{
					OFFSET	-0.080363	 0.000306	 0.159706
					CHANNELS 3 Zrotation Xrotation Yrotation
					JOINT RightArm
					{
						OFFSET	 0.000000	 0.000000	 0.164196
						CHANNELS 3 Zrotation Xrotation Yrotation
						JOINT RightForeArm
						{
							OFFSET	 0.000000	 0.000000	 0.365611
							CHANNELS 3 Zrotation Xrotation Yrotation
							JOINT RightHand
							{
								OFFSET	 0.000000	 0.000000	 0.360648
								CHANNELS 3 Zrotation Xrotation Yrotation
								JOINT RightHandIndex1
								{
									OFFSET	 0.000000	 0.000000	 0.069977
									CHANNELS 3 Zrotation Xrotation Yrotation
									JOINT RightHandIndex2
									{
										OFFSET	 0.000000	 0.000000	 0.052305
										CHANNELS 3 Zrotation Xrotation Yrotation
										JOINT RightHandIndex3
										{
											OFFSET	 0.009002	-0.000782	 0.042196
											CHANNELS 3 Zrotation Xrotation Yrotation
											End Site
											{
												OFFSET	 0.009002	-0.000782	 0.042196
											}
										}
									}
								}
							}
						}
					}
				}
			}
		}
	}
}
MOTION
Frames:    7
Frame Time: 0.03333334
 0.011700	 0.012874	 1.199184	 5.426140	-0.686442	-2.736706	 11.812780	-9.616053	-175.365300	 1.167873	-39.023490	 0.513275	 68.924150	 83.411320	-73.086960	-2.368864	 31.703350	-0.071934	-20.312760	-34.013080	-177.540300	 10.449360	-46.122790	 8.128171	 6.102687	 76.138120	-1.192879	 2.358974	 33.000020	 0.103224	-14.422310	 8.282522	 1.944869	-2.189596	 2.171544	-1.432747	 3.166922	-2.326854	 1.638756	-94.059250	 58.972740	 175.129600	 8.474002	 27.802530	-42.112020	-5.454464	 0.153990	-2.883345	-2.515768	-20.567190	-9.045861	-4.866668	 19.332190	-2.796804	-3.872809	 21.584140	 2.193897	-4.804949	 5.584562	 0.144682	-0.049568	-5.097231	 0.216125	 1.113866	 1.826011	 2.659488	 89.734900	 61.724220	 179.887100	-20.150280	 54.078700	 11.267980	 1.795405	-0.751887	 9.346409	-3.228635	-5.632029	 0.577674	 6.282053	 23.959530	-0.545900	 1.994714	 43.802310	-7.090219	 0.711523	 23.457590	 3.475457
 0.010571	-0.010240	 1.197635	 5.811885	-0.313754	-2.754327	 11.454890	-8.663252	-175.715300	 1.322280	-38.605650	 0.605003	 74.421400	 83.972470	-78.644390	-2.368206	 31.812940	-0.074409	-21.796820	-35.080800	-178.582900	 10.300560	-42.195590	 7.478452	 4.052989	 76.603260	 0.539194	 2.359043	 32.989770	 0.102983	-16.998510	 8.019918	 1.837213	-2.263531	 2.288546	-1.362117	 3.089822	-2.536690	 1.625477	-94.155600	 58.988480	 174.922100	 7.656899	 26.473500	-42.439370	-6.808043	 0.285015	-3.624773	-2.961162	-21.247920	-9.676472	-4.863285	 19.418870	-2.802498	-3.867359	 21.653640	 2.188355	-4.803718	 5.599030	 0.143835	-0.029753	-5.111683	 0.244489	 1.092645	 1.754881	 2.606526	 89.697540	 61.791900	 179.797300	-19.991820	 54.798040	 10.134080	 2.670904	-0.515164	 10.023880	-2.821696	-5.978304	 0.504783	 6.272502	 23.283150	-0.555415	 2.072777	 43.140590	-7.159311	 0.856600	 22.808280	 3.404309
 0.006540	-0.091399	 1.189300	 6.429334	 0.750234	-3.232150	 10.928560	-4.535825	-176.636000	 1.592322	-36.396120	 0.735609	 100.058400	 85.488770	-104.294900	-2.363790	 32.513130	-0.090426	-24.031800	-36.463500	 178.762000	 9.704319	-26.931640	 4.773111	-0.356111	 74.061070	 3.678765	 2.359605	 32.906690	 0.101055	-24.918320	 7.019051	 1.923149	-2.478906	 3.073183	-1.114452	 2.892605	-3.236012	 1.528635	-94.405670	 58.979080	 174.390400	 4.986144	 22.735340	-43.526870	-11.954820	 0.955842	-6.060268	-5.120834	-23.848390	-10.141470	-4.840189	 19.933050	-2.821140	-3.841731	 21.978560	 2.162321	-4.787698	 5.787556	 0.132773	 0.002796	-5.210875	 0.325957	 0.960933	 1.532966	 2.560021	 89.521070	 61.992160	 179.369800	-18.836660	 56.331360	 9.242601	 4.951271	 0.880592	 6.124862	-2.052732	-7.130133	-0.596946	 6.226296	 20.612760	-0.646066	 2.336623	 40.775880	-7.390728	 1.449723	 20.079110	 3.127927
 0.000539	-0.169566	 1.173392	 6.731821	 1.100524	-3.685834	 10.629600	 0.253588	-177.849800	 1.829749	-34.404460	 0.834695	 127.336100	 86.568410	-131.475400	-2.344983	 35.117290	-0.151697	-23.629260	-40.778260	 177.213800	 9.892409	-21.402850	 3.925795	 4.777301	 79.232560	-2.863932	 2.340480	 35.465480	 0.161786	-32.696810	 6.521887	 2.130696	-2.578115	 4.033092	-0.871435	 2.787028	-4.062049	 1.418888	-94.525990	 58.918570	 174.144100	 2.683060	 20.829110	-44.398220	-16.775250	 2.041839	-8.559140	-8.149867	-26.310760	-11.271670	-4.836778	 20.423570	-2.947131	-3.801477	 22.483430	 2.121434	-4.741038	 6.333810	 0.100377	 0.078161	-5.359384	 0.352298	 0.917258	 1.291986	 2.328744	 89.382450	 62.002350	 179.034900	-16.675430	 57.494980	 4.893137	 7.095356	 1.948311	 8.628484	-1.051097	-9.191901	-2.335357	 6.171928	 17.184230	-0.705883	 2.765508	 36.462810	-7.758865	 2.156570	 16.675260	 2.830861
-0.007738	-0.249662	 1.158140	 7.084677	 1.039764	-3.431459	 10.109410	 5.676943	-179.861500	 2.344073	-30.962260	 1.024801	 52.624320	 88.998290	-56.596410	-2.281767	 41.369650	-0.312975	-23.549910	-43.871930	 175.596000	 9.767947	-21.461890	 3.889175	-0.368842	 75.508510	 2.853936	 2.338792	 35.668040	 0.166723	-39.212040	 6.438805	 1.897240	-2.672158	 4.313910	-0.957138	 2.669894	-4.560083	 1.380922	-94.517460	 59.208450	 174.114100	 1.130358	 20.483160	-44.379730	-20.586790	 3.325946	-10.677480	-11.700070	-29.034400	-13.793320	-4.877780	 20.605060	-3.239797	-3.764514	 22.941130	 2.083905	-4.675647	 7.092292	 0.054591	 0.182962	-5.481358	 0.277630	 0.999429	 1.203533	 2.055355	 89.355890	 61.654230	 178.983800	-14.672640	 57.728320	 1.074502	 9.262081	 3.222208	 10.751300	 0.092282	-11.772430	-3.393276	 6.190407	 13.999560	-0.418591	 3.021966	 33.569290	-7.973292	 2.780921	 13.540600	 2.599879
-0.017869	-0.342188	 1.146924	 7.825577	 0.332417	-2.122731	 10.557440	 12.232670	 176.203300	 0.774925	-26.892510	 0.190975	-11.976550	 80.146690	 11.172250	-2.059427	 53.174790	-0.708291	-20.848530	-41.359790	 175.450900	 6.269134	-22.276830	 2.675328	-11.453020	 65.629970	 20.491470	 2.337549	 35.815440	 0.170332	-44.912030	 6.607214	 0.643522	-3.090592	 4.462480	-1.137849	 2.435472	-4.570867	 1.215845	-94.421460	 59.225640	 174.317100	 0.430011	 20.190860	-43.429790	-24.553790	 4.819215	-12.569100	-14.589170	-29.858680	-15.056160	-4.895503	 20.820260	-3.413617	-3.743752	 23.195860	 2.062822	-4.595646	 8.008845	-0.002010	 0.316435	-5.445065	 0.262495	 1.103519	 1.417373	 2.310513	 89.286440	 61.408190	 178.828400	-13.154110	 57.455180	-1.506104	 11.818790	 4.709036	 12.653740	 1.116073	-14.233720	-2.977347	 6.308286	 10.879390	 0.220986	 3.223327	 31.113320	-8.138076	 3.289592	 10.906310	 2.434890
-0.030050	-0.449300	 1.141229	 9.869103	-0.672601	-0.576858	 10.720830	 13.843240	 171.420000	 1.021180	-31.895560	 0.353212	-8.909086	 63.362540	 13.102750	-1.020450	 70.985590	-1.987913	-22.225430	-38.782610	 174.022300	 8.186578	-29.301110	 4.404650	-14.248320	 58.254080	 25.527400	 2.345981	 34.779470	 0.145220	-49.038940	 6.802298	-0.533444	-3.703876	 4.773536	-1.798553	 1.932955	-4.506164	 1.237992	-94.269680	 59.252740	 174.638700	 1.365646	 20.365530	-42.167630	-27.837710	 6.518373	-14.288430	-16.296920	-28.442160	-16.092880	-4.830740	 21.233100	-3.168864	-3.685644	 23.899320	 2.003854	-4.516717	 8.900944	-0.058481	 0.405383	-5.333986	 0.252061	 1.008618	 1.890895	 2.335342	 89.038980	 60.965900	 178.270500	-11.770140	 56.524130	-2.754971	 15.868270	 6.419521	 14.376380	 4.013299	-16.120560	-0.297800	 6.365073	 8.605725	 0.487087	 3.389865	 28.950040	-8.271664	 3.636686	 9.071836	 2.334817
